<?xml version="1.0" encoding="utf-8"?>
<!-- Generator: Adobe Illustrator 25.4.1, SVG Export Plug-In . SVG Version: 6.00 Build 0)  -->
<svg version="1.1" id="Capa_1" xmlns="http://www.w3.org/2000/svg" xmlns:xlink="http://www.w3.org/1999/xlink" x="0px" y="0px"
	 viewBox="0 0 500 500" style="enable-background:new 0 0 500 500;" xml:space="preserve">
<style type="text/css">
	.st0{fill:#030202;}
	.st1{fill:#CF2A38;}
</style>
<g>
	<path class="st0" d="M84.44,177.07c12.86,12.79,26.87,26.68,40.79,40.66c1.76,1.76,2.74,1.7,4.46-0.06
		c8.09-8.28,16.31-16.44,24.54-24.58c1.38-1.37,2.09-2.24,0.31-4.01c-27.54-27.35-55-54.78-82.49-82.18
		c-0.11-0.11-0.3-0.13,0.63,0.9c-3.9,3.31-7.85,6.56-11.68,9.94c-5.56,4.9-12.46,3.24-14.31-3.87
		c-6.59-25.3-13.07-50.64-19.36-76.02c-1.88-7.58,3.17-12.48,10.8-10.58c25.21,6.28,50.37,12.73,75.52,19.27
		c7.43,1.93,9.25,8.88,3.97,14.49c-2.68,2.85-5.38,5.77-8.49,8.09c-2.86,2.13-2.08,3.24-0.01,5.3
		c26.42,26.31,52.78,52.68,79.07,79.12c2.07,2.08,3.18,2.61,5.51,0.17c7.76-8.13,15.76-16.02,23.8-23.87
		c1.83-1.79,2.17-2.83,0.16-4.82c-13.33-13.15-26.56-26.41-39.73-39.72c-1.65-1.67-2.49-2.04-4.18,0.03
		c-2.68,3.29-5.66,6.37-8.77,9.26c-5.54,5.13-12.28,3.43-14.18-3.82c-6.61-25.3-13.09-50.63-19.37-76.02
		c-1.95-7.86,3.15-12.46,11.11-10.45c24.53,6.18,49.05,12.4,73.56,18.67c9.43,2.41,11.33,9.09,4.61,15.96
		c-2.38,2.43-4.69,5.02-7.42,7c-2.8,2.03-2.33,3.2-0.13,5.36c15.14,14.96,30.15,30.04,45.18,45.11
		c18.78,18.82,18.81,43.06,0.08,61.84c-9.86,9.89-19.65,19.84-29.67,29.56c-2.55,2.47-2.51,3.79,0,6.29
		c71.5,71.29,142.91,142.66,214.33,214.02c14.57,14.56,29.2,29.07,43.69,43.72c7.06,7.14,9.33,15.8,6.16,25.35
		c-3.03,9.12-9.62,14.7-19.12,16.41c-8.5,1.53-15.77-1.24-21.83-7.25c-9.3-9.24-18.56-18.52-27.83-27.79
		c-76.36-76.3-152.74-152.59-229-228.98c-3.2-3.21-4.88-3.51-8.16-0.06c-9.61,10.12-19.61,19.87-29.54,29.69
		c-17.72,17.54-42.33,17.55-60.01-0.01c-15.34-15.24-30.63-30.53-45.84-45.9c-2.21-2.23-3.52-3.02-5.73,0.06
		c-2.06,2.87-4.79,5.3-7.36,7.78c-6.22,5.98-13.14,4.08-15.29-4.28c-5.54-21.54-10.98-43.11-16.45-64.67
		c-0.75-2.96-1.47-5.93-2.19-8.9c-2.26-9.23,2.33-14.01,11.47-11.73c14,3.49,27.96,7.14,41.94,10.72
		c10.69,2.74,21.41,5.38,32.05,8.27c8.23,2.23,9.89,8.66,4.19,14.95C90.9,169.13,87.84,173.02,84.44,177.07z M35.71,199.43
		c0.88-1.12,1.34-1.6,1.68-2.16c6.66-10.87,10.04-11.24,19.24-2.04c17.1,17.1,34.19,34.2,51.29,51.29
		c12.71,12.7,26.46,12.69,39.24-0.05c12.3-12.26,24.58-24.54,36.83-36.85c2.53-2.54,5.24-4.4,9.04-3.42
		c2.79,0.72,4.54,2.91,6.45,4.83c87.08,87.02,174.15,174.04,261.23,261.06c6.26,6.26,10.71,7.13,14.82,2.93
		c3.78-3.86,2.78-8.54-3.1-14.42C385.47,373.7,298.51,286.8,211.55,199.89c-7.59-7.59-7.62-10.19-0.17-17.64
		c11.92-11.92,23.91-23.77,35.73-35.79c12.05-12.25,11.96-26.06-0.09-38.15c-13.7-13.75-27.44-27.46-41.17-41.19
		c-4.69-4.7-9.5-9.29-14.04-14.13c-4.77-5.08-3.78-10.33,2.25-13.9c1.69-1,3.86-1.4,4.91-3.58c-14.75-3.78-29.4-7.52-44.03-11.31
		c-3.42-0.89-4.55-0.38-3.47,3.6c3.63,13.27,6.87,26.66,10.32,39.98c0.3,1.14-0.19,2.87,1.9,3.23c0.39-0.49,0.88-0.97,1.22-1.53
		c5.85-9.96,9.83-10.49,17.96-2.36c17.46,17.46,34.93,34.91,52.36,52.39c5.95,5.96,5.96,9.68,0.1,15.56
		c-12.02,12.06-24.07,24.09-36.12,36.13c-6.43,6.42-9.88,6.46-16.23,0.11c-27.46-27.45-54.91-54.9-82.36-82.36
		c-4.09-4.09-8.22-8.15-12.26-12.3c-5.3-5.44-4.58-10.92,1.85-14.62c1.56-0.9,3.44-1.32,4.88-3.37
		c-15.52-3.98-30.79-7.91-46.07-11.8c-3.31-0.84-2.25,1.26-1.83,2.89c3.46,13.5,6.89,27,10.37,40.49c0.4,1.53,0.14,3.37,1.96,4.56
		c0.48-0.78,0.94-1.48,1.34-2.21c5.37-9.68,9.84-10.35,17.61-2.59c31.19,31.18,62.38,62.36,93.55,93.56
		c5.46,5.46,5.46,9.34,0.04,14.79c-12.13,12.19-24.3,24.34-36.47,36.49c-6.41,6.4-9.92,6.42-16.3,0.05
		c-16.63-16.6-33.24-33.22-49.84-49.85c-1.92-1.93-3.95-3.78-5.63-5.91c-3.45-4.37-2.54-9.16,2.03-12.32
		c1.75-1.21,4.19-1.45,5.28-3.61c-0.82-1.55-2.4-1.31-3.63-1.63c-13.16-3.4-26.39-6.53-39.49-10.14c-4.57-1.26-4.51,0.44-3.64,3.81
		C28.12,169.72,31.81,184.21,35.71,199.43z"/>
	<path class="st1" d="M35.71,199.43c-3.9-15.22-7.59-29.7-11.33-44.18c-0.87-3.37-0.94-5.07,3.64-3.81
		c13.1,3.61,26.33,6.75,39.49,10.14c1.23,0.32,2.81,0.08,3.63,1.63c-1.09,2.16-3.53,2.4-5.28,3.61c-4.57,3.17-5.47,7.95-2.03,12.32
		c1.68,2.13,3.71,3.98,5.63,5.91c16.61,16.63,33.22,33.25,49.84,49.85c6.38,6.37,9.89,6.35,16.3-0.05
		c12.17-12.15,24.34-24.3,36.47-36.49c5.42-5.45,5.42-9.33-0.04-14.79c-31.17-31.2-62.36-62.38-93.55-93.56
		c-7.76-7.76-12.24-7.09-17.61,2.59c-0.4,0.73-0.86,1.42-1.34,2.21c-1.82-1.19-1.57-3.03-1.96-4.56c-3.48-13.49-6.92-27-10.37-40.49
		c-0.42-1.63-1.48-3.73,1.83-2.89c15.28,3.89,30.55,7.82,46.07,11.8c-1.43,2.05-3.31,2.47-4.88,3.37c-6.43,3.7-7.16,9.18-1.85,14.62
		c4.04,4.15,8.17,8.21,12.26,12.3c27.45,27.45,54.9,54.91,82.36,82.36c6.34,6.34,9.8,6.31,16.23-0.11
		c12.05-12.03,24.09-24.07,36.12-36.13c5.86-5.88,5.85-9.6-0.1-15.56c-17.44-17.48-34.9-34.93-52.36-52.39
		c-8.14-8.14-12.11-7.61-17.96,2.36c-0.33,0.57-0.82,1.05-1.22,1.53c-2.08-0.36-1.6-2.09-1.9-3.23
		c-3.45-13.32-6.69-26.71-10.32-39.98c-1.09-3.98,0.04-4.49,3.47-3.6c14.64,3.78,29.28,7.52,44.03,11.31
		c-1.05,2.18-3.22,2.58-4.91,3.58c-6.03,3.57-7.01,8.82-2.25,13.9c4.54,4.84,9.35,9.43,14.04,14.13
		c13.72,13.73,27.46,27.44,41.17,41.19c12.05,12.09,12.14,25.9,0.09,38.15c-11.82,12.02-23.82,23.86-35.73,35.79
		c-7.45,7.45-7.42,10.05,0.17,17.64c86.96,86.91,173.92,173.81,260.87,260.71c5.88,5.88,6.89,10.55,3.1,14.42
		c-4.11,4.19-8.56,3.32-14.82-2.93c-87.08-87.02-174.15-174.04-261.23-261.06c-1.92-1.92-3.66-4.11-6.45-4.83
		c-3.79-0.98-6.51,0.87-9.04,3.42c-12.25,12.31-24.54,24.59-36.83,36.85c-12.78,12.74-26.53,12.75-39.24,0.05
		c-17.1-17.09-34.19-34.2-51.29-51.29c-9.2-9.2-12.58-8.84-19.24,2.04C37.05,197.82,36.58,198.31,35.71,199.43z"/>
</g>
</svg>
